HIERARCHY
ROOT hip
{
	OFFSET 0.000000 0.000000 0.000000 
	CHANNELS 6 Xposition Yposition Zposition Xrotation Zrotation Yrotation
	JOINT abdomen
	{
		OFFSET 0.000000 3.402643 0.000000 
		CHANNELS 3 Xrotation Zrotation Yrotation
		JOINT chest
		{
			OFFSET 0.000000 8.438565 -0.680529 
			CHANNELS 3 Xrotation Zrotation Yrotation
			JOINT neck
			{
				OFFSET 0.000000 10.207942 -0.272212 
				CHANNELS 3 Xrotation Zrotation Yrotation
				JOINT head
				{
					OFFSET 0.000000 3.130431 0.000000 
					CHANNELS 3 Xrotation Zrotation Yrotation
					End Site
					{
						OFFSET 0.000000 3.130435 0.000000 
					}
				}
			}
			JOINT lCollar
			{
				OFFSET 3.470700 6.669187 -0.816635 
				CHANNELS 3 Yrotation Zrotation Xrotation
				JOINT lShldr
				{
					OFFSET 3.198488 0.000000 0.000000 
					CHANNELS 3 Zrotation Yrotation Xrotation
					JOINT lForeArm
					{
						OFFSET 10.139888 0.000000 0.000000 
						CHANNELS 3 Yrotation Zrotation Xrotation
						JOINT lHand
						{
							OFFSET 8.370511 0.000000 0.000000 
							CHANNELS 3 Zrotation Yrotation Xrotation
							End Site
							{
								OFFSET 4.083176 0.000000 0.000000 
							}
						}
					}
				}
			}
			JOINT rCollar
			{
				OFFSET -3.470700 6.669187 -0.816635 
				CHANNELS 3 Yrotation Zrotation Xrotation
				JOINT rShldr
				{
					OFFSET -3.198488 0.000000 0.000000 
					CHANNELS 3 Zrotation Yrotation Xrotation
					JOINT rForeArm
					{
						OFFSET -10.139888 0.000000 0.000000 
						CHANNELS 3 Yrotation Zrotation Xrotation
						JOINT rHand
						{
							OFFSET -8.370511 0.000000 0.000000 
							CHANNELS 3 Zrotation Yrotation Xrotation
							End Site
							{
								OFFSET -4.083176 0.000000 0.000000 
							}
						}
					}
				}
			}
		}
	}
	JOINT lThigh
	{
		OFFSET 5.308129 -1.633274 1.361059 
		CHANNELS 3 Xrotation Zrotation Yrotation
		JOINT lShin
		{
			OFFSET -2.041588 -20.007561 0.000000 
			CHANNELS 3 Xrotation Zrotation Yrotation
			JOINT lFoot
			{
				OFFSET 0.000000 -19.190928 -1.224953 
				CHANNELS 3 Xrotation Yrotation Zrotation
				End Site
				{
					OFFSET 0.000000 -2.449906 4.627600 
				}
			}
		}
	}
	JOINT rThigh
	{
		OFFSET -5.308129 -1.633274 1.361059 
		CHANNELS 3 Xrotation Zrotation Yrotation
		JOINT rShin
		{
			OFFSET 2.041588 -20.007561 0.000000 
			CHANNELS 3 Xrotation Zrotation Yrotation
			JOINT rFoot
			{
				OFFSET 0.000000 -19.190928 -1.224953 
				CHANNELS 3 Xrotation Yrotation Zrotation
				End Site
				{
					OFFSET 0.000000 -2.449906 4.627600 
				}
			}
		}
	}
}
MOTION
Frames: 16
Frame Time: 0.033333
-6.743907 40.325386 96.500420 -24.267578 -20.224609 124.970703 40.927734 -2.138672 1.572266 -17.412111 -4.140625 3.261719 -35.585934 0.214844 3.115271 22.656250 -2.480469 3.271484 0.849609 15.566404 0.605469 -73.359375 -10.439453 -32.960758 -130.263672 -0.185547 20.146484 109.482422 -45.800781 -114.072266 8.750000 -7.871093 0.341797 76.826172 7.451173 0.460252 78.007813 3.056641 -35.439453 2.763672 13.271484 0.929978 -75.509315 36.126720 9.062634 31.722509 -1.261210 -2.101299 5.658923 15.602213 -6.422369 -70.749191 5.595812 -3.831804 72.270699 -1.376277 3.923363 -29.030920 -35.064476 -13.513140 
-6.764855 40.143356 96.920578 -25.322266 -20.566406 125.846184 42.001949 -2.187500 0.634766 -17.236328 -5.195313 2.733491 -35.576176 0.322266 2.578125 22.656250 -2.304688 2.919922 -0.390625 15.898438 0.761719 -74.384766 -13.359375 -31.330385 -129.628906 -0.136719 22.343773 -70.097656 -133.173828 65.537109 8.750000 -8.046876 0.361328 78.271484 9.414063 0.410156 78.066406 3.300781 -35.751957 2.763672 13.271484 0.929978 -76.890564 36.286144 9.725408 30.847334 -1.256433 -2.219478 6.067204 14.316535 -6.319545 -72.493958 6.132375 -4.462656 72.795456 -1.705752 3.681143 -29.280437 -35.157448 -14.057881 
-6.748072 39.982643 97.300186 -26.367188 -20.927736 126.490646 42.890629 -2.392578 -0.381267 -17.060547 -6.250000 2.031250 -36.093754 0.771484 1.982417 23.007813 -2.128906 2.577762 -1.396484 16.591797 0.683594 -75.478516 -16.572264 -30.129736 -129.169922 -0.029297 23.681643 -69.345703 -132.060547 64.973221 8.564453 -8.046876 0.341797 79.609375 11.406251 0.830078 78.203125 3.095703 -36.504436 2.939453 13.095703 0.939714 -78.100105 37.144222 10.404311 30.318951 -1.436920 -2.072030 6.272322 12.437660 -6.182656 -74.085915 6.659995 -4.769044 73.338905 -1.549568 3.677094 -29.535763 -35.733051 -14.454420 
-6.701770 39.833450 97.641586 -27.421875 -21.279297 127.017944 43.779301 -2.490235 -1.162534 -16.533203 -7.128906 1.503906 -36.787113 1.250000 1.572266 23.535156 -1.962891 2.421541 -2.451172 17.285158 0.839844 -76.386719 -19.296875 -29.241508 -128.808594 0.029297 24.531246 -67.929688 -130.800781 63.635185 8.212891 -8.046876 0.294336 80.644531 13.417969 1.552734 78.125000 3.105469 -36.885296 2.939453 13.271483 0.937500 -79.189247 37.705009 11.053969 29.595537 -1.529608 -2.221153 6.604886 11.160669 -6.441652 -75.470695 7.167039 -5.541564 73.842476 -1.725577 3.886245 -29.879570 -36.422428 -14.935122 
-6.627172 39.685966 97.930679 -28.308352 -21.619699 127.427155 44.316410 -2.695313 -2.168428 -16.015625 -8.359375 0.810547 -38.007813 2.236328 0.917969 24.238281 -2.138672 2.255860 -3.271484 17.998047 0.807529 -76.884766 -21.855467 -28.759762 -128.857422 0.000000 24.287109 -66.279297 -129.814453 62.160465 8.037109 -7.529296 0.195312 81.367188 15.234375 2.463504 78.085938 3.144531 -37.432175 2.939453 13.095703 0.939714 -80.858261 38.651501 11.512232 29.434759 -1.256158 -2.311416 6.630387 9.742092 -5.977522 -76.685249 7.880851 -6.272589 74.193016 -1.734907 3.910812 -30.194244 -36.597034 -15.322027 
-6.541671 39.537132 98.154221 -29.189455 -21.806641 127.607430 44.843750 -2.792969 -2.949695 -15.312500 -9.414063 0.283203 -38.886719 3.232422 0.429687 24.765625 -2.314453 2.099215 -4.150391 18.515627 0.947266 -77.294922 -23.828125 -28.314491 -128.740234 -0.126953 23.203144 -64.355469 -128.535156 60.312504 7.705078 -7.158204 0.274654 82.011719 16.874998 3.371975 78.017578 3.154297 -37.802734 2.939453 13.095703 0.939714 -82.201485 39.477699 11.654339 29.951548 -1.261165 -2.358884 7.379909 8.717327 -6.147542 -77.729912 8.417930 -6.877605 74.918755 -1.383776 3.665100 -30.612579 -36.517471 -15.525935 
-6.451393 39.397125 98.324478 -29.707033 -22.158205 127.724609 45.546875 -2.890625 -3.720702 -14.785155 -10.117187 -0.060309 -39.765625 3.916016 0.176448 25.468750 -2.324219 2.118745 -4.775391 18.535158 0.839844 -77.080078 -25.410154 -28.291014 -129.003906 -0.195313 21.132843 -62.314461 -127.304688 58.271484 7.519531 -6.982422 0.224609 82.314453 18.134768 4.085073 77.773438 3.232422 -38.008362 3.115234 13.095703 0.947266 -83.589584 40.162392 11.735688 30.312939 -1.261197 -2.377666 8.193795 7.932256 -6.245014 -78.776939 8.603867 -7.407687 75.273643 -1.386581 3.840821 -30.761549 -36.787060 -16.032152 
-6.354990 39.254543 98.458237 -30.244143 -22.509766 127.783211 46.064453 -3.154297 -4.560547 -14.257813 -10.468750 -0.587712 -40.292969 4.238281 -0.048828 25.644529 -2.148438 2.294936 -5.634766 18.359659 0.934440 -76.855469 -26.425779 -28.529736 -129.482422 -0.507813 18.457031 -60.234379 -126.240227 56.396484 7.343750 -6.806641 0.176939 82.529297 19.228516 4.846967 77.773438 3.232422 -38.008362 2.939453 13.095703 0.939714 -84.844048 40.713234 11.320231 31.029465 -1.270001 -2.047873 8.568663 6.871320 -6.189591 -79.483017 8.758896 -7.661566 75.608162 -1.540244 3.893505 -30.507002 -36.500572 -15.626516 
-6.257484 39.116367 98.567520 -30.419920 -22.675781 127.603661 46.767574 -3.486328 -5.234375 -14.082032 -10.644531 -0.761719 -40.292969 4.257813 0.126953 25.820311 -1.796875 2.480469 -6.259766 18.037111 0.742188 -76.259766 -26.748047 -29.281738 -130.009766 -0.585938 15.253931 -58.671879 -125.175781 54.951172 7.343750 -6.982421 0.205078 82.783203 19.765625 5.218147 77.636719 3.339844 -37.998043 3.115234 12.919921 0.947266 -86.102585 41.258999 11.076068 31.901625 -1.261293 -2.285558 8.553261 6.314773 -5.813743 -80.215714 9.120170 -7.583626 76.139015 -1.716227 3.636894 -30.129852 -35.605942 -15.002901 
-6.163776 38.981995 98.678864 -30.585936 -23.037107 127.359467 47.285156 -3.476563 -5.791607 -14.082031 -10.820313 -1.113281 -40.126953 4.130859 0.498047 25.644531 -1.445313 2.822266 -7.119141 17.353514 0.761719 -75.292969 -26.943361 -30.111849 -130.605469 -0.781250 12.177735 -57.441406 -124.589836 53.888447 7.343750 -7.158203 0.225826 82.812500 20.322266 5.869141 77.636719 3.339844 -37.998043 3.115234 13.095703 0.947266 -87.353279 41.982273 10.633628 32.786533 -1.090828 -2.265982 7.467953 5.733898 -5.963678 -81.176132 9.637902 -6.870699 77.008743 -1.911794 3.701488 -28.750326 -33.696663 -12.959836 
-6.084646 38.850189 98.799149 -30.761717 -23.388672 127.183624 47.812500 -3.691406 -6.240235 -14.082031 -10.820313 -1.289063 -39.785156 4.003906 0.869823 25.654297 -1.093750 3.173839 -7.470703 16.826172 0.797954 -74.335938 -27.314453 -31.083982 -130.898438 -0.859375 9.580078 -56.826172 -123.955078 53.457031 7.519532 -7.158204 0.245357 82.802734 20.869141 6.230469 77.636719 3.173828 -38.037109 3.115234 13.095703 0.947266 -88.471680 42.407986 10.307039 33.834095 -1.095558 -2.505439 6.277759 5.645599 -5.587037 -82.194664 9.823999 -5.253870 78.058685 -1.726031 4.035463 -27.101011 -31.526342 -10.987478 
-6.017641 38.713856 98.935966 -31.113281 -23.740232 127.183571 48.330078 -3.740235 -6.621094 -13.916016 -11.005858 -1.464844 -39.267578 3.720703 1.436180 25.302734 -0.917969 3.515469 -7.968750 16.142578 0.683594 -73.203125 -27.822268 -31.826176 -131.123047 -1.035156 7.099609 -55.966801 -123.466805 52.558594 7.705078 -7.500000 0.313775 82.705078 21.406250 6.487940 77.675781 3.212891 -38.203121 3.291015 13.095703 0.957031 -89.749657 43.158791 10.128819 34.520256 -1.105377 -2.727991 6.098065 5.249243 -5.524001 -82.995445 10.156111 -4.425602 79.110039 -1.921862 3.947731 -26.264915 -29.751139 -9.799879 
-5.974278 38.584251 99.076843 -31.289063 -24.267578 127.183479 49.042973 -4.013672 -6.914827 -13.916016 -11.181641 -1.464844 -38.574219 3.935547 1.768228 24.775391 -1.083984 3.857237 -8.320312 15.439453 0.680994 -71.894531 -28.486330 -32.485126 -131.142578 -1.210938 4.375000 -54.472652 -122.763672 51.124599 8.056640 -7.500000 0.361328 82.363281 21.943359 6.566149 77.675781 3.212891 -38.203121 3.291015 13.095703 0.957031 -90.875015 43.395161 9.704001 35.233093 -1.095552 -2.237474 6.368267 4.983920 -5.420979 -83.903778 10.341907 -4.477343 79.460655 -2.099332 3.798538 -27.245155 -28.990038 -10.054306 
-5.939245 38.450367 99.233871 -31.298826 -24.794922 127.251762 49.570313 -4.179688 -6.973368 -14.091797 -11.171876 -1.464844 -37.705078 3.652343 2.333984 24.423830 -1.259766 4.199004 -8.496094 14.746093 0.622514 -70.917969 -28.925779 -32.548828 -130.937500 -1.396484 1.396728 -51.816406 -121.855469 48.837891 8.388672 -7.695312 0.263672 81.982422 22.285156 6.230469 77.714844 3.242188 -38.388676 3.681640 13.242188 1.152344 -91.818169 43.655418 9.401050 35.768547 -1.271447 -2.493161 5.829343 4.882804 -5.449534 -84.068230 10.517199 -4.650142 79.635643 -2.263646 3.652939 -28.526218 -28.721533 -10.464018 
-5.913522 38.332527 99.384544 -31.289063 -25.146484 127.183357 50.449223 -4.179688 -6.973367 -14.267578 -11.171875 -1.115173 -36.484379 3.544922 2.871094 23.886719 -1.611328 4.541016 -8.671875 14.218750 0.583539 -70.078133 -29.414063 -32.695309 -130.664063 -1.523438 -1.962631 -48.037113 -120.625008 45.224613 8.750000 -7.871093 0.341797 81.494141 22.451174 5.775215 77.851563 3.310547 -38.339848 3.681640 13.242188 1.152344 -92.245949 43.710835 9.680195 35.949825 -1.095608 -2.430124 5.119736 4.631754 -5.330213 -84.423119 10.508075 -4.905224 79.469963 -1.747900 3.906770 -30.297506 -29.671356 -11.992184 
-5.891719 38.236496 99.536552 -31.289063 -25.322264 127.183327 50.986328 -4.404297 -6.865234 -14.433594 -11.171875 -0.939392 -35.087891 3.437500 3.417969 23.183594 -1.953125 4.873047 -8.671875 14.218750 0.583539 -69.726563 -29.892578 -32.641582 -130.136719 -1.835938 -5.429374 -44.042969 -119.609367 41.621098 9.433594 -7.890625 0.263672 80.839844 22.753904 4.906121 77.812500 3.271484 -38.173832 3.681641 13.066406 1.152344 -92.650520 43.940430 9.673443 36.121368 -1.251834 -2.486628 4.283884 4.767583 -5.430260 -84.931046 10.673979 -5.509094 79.819008 -2.089497 3.634936 -31.042755 -29.690416 -12.248507 
